<svg xmlns="http://www.w3.org/2000/svg" shape-rendering="geometricPrecision" text-rendering="geometricPrecision" image-rendering="optimizeQuality" fill-rule="evenodd" clip-rule="evenodd" viewBox="0 0 424 511.54"><path fill="#fff" fill-rule="nonzero" d="M133.97 242.65l1.98 22.2c-5.54 2.29-12.5 3.44-20.87 3.44-8.37 0-15.09-.88-20.16-2.65-5.06-1.76-9.05-4.53-11.95-8.32-2.91-3.79-4.94-8.24-6.08-13.35-1.15-5.11-1.72-11.4-1.72-18.89s.57-13.81 1.72-18.96c1.14-5.16 3.17-9.63 6.08-13.42 5.63-7.31 15.99-10.96 31.05-10.96 3.35 0 7.29.33 11.82.99 4.54.66 7.91 1.47 10.11 2.44l-3.96 20.22c-5.73-1.23-10.97-1.85-15.72-1.85-4.76 0-8.07.44-9.92 1.32-1.84.88-2.77 2.64-2.77 5.29v34.62c3.43.7 6.91 1.05 10.44 1.05 7.49 0 14.14-1.05 19.95-3.17zm11.9 22.2l3.69-21.8c8.11 2.03 15.4 3.04 21.87 3.04 6.48 0 11.7-.27 15.66-.79v-6.61l-11.89-1.06c-10.75-.97-18.13-3.54-22.13-7.73-4.01-4.18-6.02-10.37-6.02-18.56 0-11.28 2.45-19.03 7.34-23.26s13.19-6.34 24.91-6.34 22.28 1.1 31.71 3.3l-3.3 21.14c-8.19-1.32-14.76-1.98-19.69-1.98-4.93 0-9.12.22-12.56.66v6.48l9.52.92c11.54 1.15 19.51 3.9 23.92 8.26 4.4 4.36 6.6 10.42 6.6 18.17 0 5.55-.74 10.24-2.24 14.07-1.5 3.83-3.28 6.74-5.35 8.72-2.07 1.99-5 3.5-8.79 4.56-3.79 1.06-7.11 1.7-9.98 1.92-2.86.22-6.67.33-11.43.33-11.45 0-22.07-1.15-31.84-3.44zm128.57-81.13h27.88l-20.48 82.59h-38.59l-20.48-82.59h27.88l11.24 52.46h1.19l11.36-52.46z"/><path fill="#fff" fill-rule="nonzero" d="M86.37 413.44c-11.76 0-11.76-17.89 0-17.89H189.1c-.2 2.95-.31 5.93-.31 8.94s.11 5.99.31 8.95H86.37zM265.81 24.26v29.1c0 65.66 15.31 69.47 69.08 69.47h22.03l-91.11-98.57zm94.33 115.92h-21.48c-61.02 0-90.2-4.09-90.2-86.28V17.35H56.82c-21.7 0-39.47 17.78-39.47 39.47v264.79H219.2c-4.64 5.47-8.83 11.34-12.51 17.54H17.35v89.83c0 21.62 17.85 39.47 39.47 39.47h149.04c3.53 6.12 7.56 11.92 12.02 17.34H56.82C25.63 485.79 0 460.17 0 428.98V56.82C0 25.55 25.55 0 56.82 0h206.33a8.68 8.68 0 016.93 3.45l105.07 113.68c2.19 2.37 2.34 4.66 2.34 7.52v166.86c-5.55-2.98-11.35-5.56-17.35-7.71V140.18z"/><path fill="red" d="M316.95 297.45c59.12 0 107.05 47.93 107.05 107.05 0 59.11-47.93 107.04-107.05 107.04S209.9 463.61 209.9 404.5c0-59.12 47.93-107.05 107.05-107.05z"/><path fill="#fff" fill-rule="nonzero" d="M337.9 356.54l-3.77 47.75 17.35-6.07c11.47-4.4 23.27 3.72 14.38 13.82-10.82 12.45-27.26 29.55-39.22 40.94-7.43 7.42-11.73 7.49-19.18.06-13.24-13-26.24-27.44-39.18-40.87-9.25-10.06 2.3-18.55 14.28-13.95l17.16 6.01c-1.25-16.28-2.82-31.84-3.77-48.1 0-2.99 2.5-5.39 5.42-5.61 10.31 0 20.84-.24 31.12 0 2.92.22 5.42 2.62 5.42 5.61l-.01.41z"/></svg>